<?xml version="1.0" encoding="utf-8"?>
<!-- Generator: Adobe Illustrator 15.0.0, SVG Export Plug-In . SVG Version: 6.00 Build 0)  -->
<!DOCTYPE svg PUBLIC "-//W3C//DTD SVG 1.1//EN" "http://www.w3.org/Graphics/SVG/1.1/DTD/svg11.dtd">
<svg version="1.1" id="Layer_1" xmlns="http://www.w3.org/2000/svg" xmlns:xlink="http://www.w3.org/1999/xlink" x="0px" y="0px"
	 width="612px" height="792px" viewBox="0 0 612 792" enable-background="new 0 0 612 792" xml:space="preserve">
<path fill="#FFFFFF" d="M174.302,573.3c-31.761,0-57.6-25.839-57.6-57.6V231.623c-14.687,1.315-26.2,13.648-26.2,28.677v307.4
	c0,15.905,12.895,28.8,28.8,28.8h181.396c13.989,0,25.646-9.976,28.251-23.2H174.302z"/>
<path fill="#FFFFFF" d="M241.302,520.3c-31.761,0-57.6-25.839-57.6-57.6V179.5h-9.4c-15.906,0-28.8,12.894-28.8,28.8v307.4
	c0,15.905,12.895,28.8,28.8,28.8h181.396c14.339,0,26.228-10.481,28.43-24.2H241.302z"/>
<path fill="#FFFFFF" d="M451.498,462.7c0,15.905-12.895,28.8-28.8,28.8H241.302c-15.906,0-28.8-12.895-28.8-28.8V155.3
	c0-15.906,12.895-28.8,28.8-28.8h181.396c15.905,0,28.8,12.894,28.8,28.8V462.7z"/>
</svg>
